<?xml version="1.0" encoding="UTF-8"?>
<svg width="32px" height="32px" viewBox="0 0 32 32" version="1.1" xmlns="http://www.w3.org/2000/svg">
    <title>Expense Tracker</title>
    <g stroke="none" stroke-width="1" fill="none" fill-rule="evenodd">
        <circle fill="#4F46E5" cx="16" cy="16" r="16"/>
        <path d="M22,12.5 C22,14.9853 19.9853,17 17.5,17 C19.9853,17 22,19.0147 22,21.5 C22,23.9853 19.9853,26 17.5,26 L14.5,26 C12.0147,26 10,23.9853 10,21.5 C10,19.0147 12.0147,17 14.5,17 C12.0147,17 10,14.9853 10,12.5 C10,10.0147 12.0147,8 14.5,8 L17.5,8 C19.9853,8 22,10.0147 22,12.5 Z" fill="#FFFFFF" fill-rule="nonzero"/>
        <circle fill="#FFFFFF" cx="16" cy="12.5" r="2"/>
        <circle fill="#FFFFFF" cx="16" cy="21.5" r="2"/>
    </g>
</svg>